<?xml version="1.0" encoding="UTF-8" standalone="no"?>
<!-- Generator: Adobe Illustrator 22.0.1, SVG Export Plug-In . SVG Version: 6.00 Build 0)  -->

<svg
   xmlns:dc="http://purl.org/dc/elements/1.1/"
   xmlns:cc="http://creativecommons.org/ns#"
   xmlns:rdf="http://www.w3.org/1999/02/22-rdf-syntax-ns#"
   xmlns:svg="http://www.w3.org/2000/svg"
   xmlns="http://www.w3.org/2000/svg"
   xmlns:sodipodi="http://sodipodi.sourceforge.net/DTD/sodipodi-0.dtd"
   xmlns:inkscape="http://www.inkscape.org/namespaces/inkscape"
   version="1.1"
   id="Layer_1"
   x="0px"
   y="0px"
   viewBox="0 0 71.062442 41.136245"
   xml:space="preserve"
   sodipodi:docname="Blowdry-1.svg"
   inkscape:version="0.92.3 (2405546, 2018-03-11)"
   width="7.1062441"
   height="4.1136246"><metadata
   id="metadata24"><rdf:RDF><cc:Work
       rdf:about=""><dc:format>image/svg+xml</dc:format><dc:type
         rdf:resource="http://purl.org/dc/dcmitype/StillImage" /><dc:title></dc:title></cc:Work></rdf:RDF></metadata><defs
   id="defs22" /><sodipodi:namedview
   pagecolor="#ffffff"
   bordercolor="#666666"
   borderopacity="1"
   objecttolerance="10"
   gridtolerance="10"
   guidetolerance="10"
   inkscape:pageopacity="0"
   inkscape:pageshadow="2"
   inkscape:window-width="958"
   inkscape:window-height="1008"
   id="namedview20"
   showgrid="false"
   viewbox-width="68.5"
   viewbox-height="37"
   scale-x="9.9"
   height="15.00001"
   inkscape:zoom="20.647887"
   inkscape:cx="2.4831147"
   inkscape:cy="0.50261401"
   inkscape:window-x="-7"
   inkscape:window-y="0"
   inkscape:window-maximized="0"
   inkscape:current-layer="Layer_1"
   fit-margin-top="0"
   fit-margin-left="0"
   fit-margin-right="0"
   fit-margin-bottom="0" />
<style
   type="text/css"
   id="style51">
	.st0{font-family:'GillSans-Light';}
	.st1{font-size:34.2542px;}
	.st2{letter-spacing:10;}
	.st3{letter-spacing:8;}
	.st4{fill:black;}
	.st5{fill:#f6b6ea;}
</style>

<g
   id="g83"
   transform="matrix(0.62785591,0,0,0.78551776,-231.04851,-203.60413)">
	<g
   id="g73">
		<g
   id="g71">
			<path
   class="st4"
   d="m 473.2,275.6 c -4.4,-1.1 -9.2,0.6 -12.7,4.6 -9.9,10.9 -22,10.4 -22.1,10.4 l -0.2,3.1 c 0.6,0 13.6,0.7 24.5,-11.4 2.8,-3.1 6.4,-4.5 9.7,-3.6 2.7,0.7 4.8,2.7 5.4,5.3 0.9,3.5 -0.7,7.7 -4.4,11.6 -0.8,0.5 -1.7,1.2 -2.4,2.1 l -0.1,-0.1 -0.1,0.1 0.1,0.1 c 0,0 0,0 0,0 v 0 0 l -0.1,-0.1 -0.1,0.1 0.1,0.1 v 0.1 l -0.2,-0.1 -0.1,0.1 0.2,0.1 -0.1,0.1 -0.2,-0.2 -0.1,0.1 0.2,0.2 v 0.1 l -0.2,-0.2 -0.1,0.1 0.2,0.2 -0.1,0.1 -0.3,-0.2 -0.1,0.1 0.3,0.2 v 0.1 l -0.3,-0.2 -1.7,1.6 c -0.3,0.1 -0.5,0.2 -1,0.3 -0.9,0.2 -1.9,0.5 -2.4,1.2 l -1,1.3 c -0.2,-0.1 -0.4,-0.1 -0.6,0.1 l -0.9,1.2 0.3,0.3 1.5,1.2 -2.1,2.7 c -0.1,0.2 -0.1,0.4 0.1,0.5 0.2,0.1 0.4,0.1 0.5,-0.1 l 2.1,-2.7 2.7,2.1 -2.1,2.7 c -0.1,0.2 -0.1,0.4 0.1,0.5 0.2,0.1 0.4,0.1 0.5,-0.1 l 2.1,-2.7 1.5,1.1 0.3,0.3 0.9,-1.2 c 0.1,-0.2 0.1,-0.4 -0.1,-0.6 l 1,-1.3 c 0.6,-0.8 0.7,-1.8 0.6,-2.7 0,-0.5 0.1,-0.8 0.1,-1.1 l 1.1,-2.1 -0.3,-0.2 0.1,-0.1 0.3,0.2 0.1,-0.1 -0.3,-0.2 v -0.1 l 0.2,0.2 0.1,-0.1 -0.2,-0.2 0.1,-0.1 0.2,0.2 0.1,-0.1 -0.2,-0.2 v -0.1 l 0.2,0.1 0.1,-0.1 -0.2,-0.1 V 300 l 0.1,0.1 0.1,-0.1 -0.1,-0.1 v -0.1 l 0.1,0.1 0.1,-0.1 -0.1,-0.1 0.2,-0.2 v 0 c 0.4,-0.5 0.8,-1 1.1,-1.4 6.5,-6.6 6.4,-12.2 5.6,-15 -0.9,-3.7 -3.8,-6.6 -7.6,-7.5 z"
   id="path69"
   inkscape:connector-curvature="0"
   style="fill:white" />
		</g>
	</g>
	
		<rect
   x="406"
   y="289.39999"
   transform="matrix(0.9569,-0.2904,0.2904,0.9569,-67.7882,136.3538)"
   class="st4"
   width="39.200001"
   height="14.3"
   id="rect75"
   style="fill:white" />
	<path
   class="st4"
   d="m 420.5,280.9 c 5.3,9 2.4,20.7 -6.6,26 -9,5.3 -20.7,2.4 -26,-6.6 -5.3,-9 -2.4,-20.7 6.6,-26 9,-5.3 20.6,-2.4 26,6.6 z"
   id="path77"
   inkscape:connector-curvature="0"
   style="fill:white" />
	
		<rect
   x="377.20001"
   y="260.20001"
   transform="matrix(0.8601,-0.5102,0.5102,0.8601,-89.1877,235.5508)"
   class="st4"
   width="15.1"
   height="40.400002"
   id="rect79"
   style="fill:white" />
	<path
   class="st5"
   d="m 415,283.7 c -2.1,-3.5 -5.2,-5.7 -8.7,-6.4 -3,-0.6 -6.2,-0.1 -9.3,1.7 0,0 0,0 -0.1,0 0,0 0,0 0,0 -0.1,0 -0.1,0.1 -0.2,0.1 -0.2,0.1 -0.3,0.2 -0.5,0.3 -2.6,1.7 -4.3,4 -5.2,6.7 l -12,-20.1 -3.9,2.3 17.5,29.6 c 0.1,0.1 0.2,0.2 0.3,0.3 3.9,5.6 10.4,7.2 16.4,4.2 0.3,-0.2 0.6,-0.3 1,-0.5 0,0 0,0 0,0 0,0 0,0 0,0 0.8,-0.5 1.6,-1 2.2,-1.6 0.9,-0.8 1.6,-1.6 2.2,-2.5 2.8,-4.1 3.1,-9.4 0.3,-14.1 z m -6.7,14.6 c -4.3,2.6 -9.3,1.1 -12,-3.4 -2.7,-4.6 -1.7,-9.6 2.7,-12.2 0.5,-0.3 1,-0.5 1.6,-0.7 3.9,-1.3 7.9,0.4 10.3,4.3 2.3,3.9 1.9,8.3 -1.1,11 -0.5,0.3 -1,0.7 -1.5,1 z"
   id="path81"
   inkscape:connector-curvature="0"
   style="fill:#f6b6ea" />
</g>
</svg>