<?xml version="1.0" encoding="iso-8859-1"?>
<!-- Generator: Adobe Illustrator 19.0.0, SVG Export Plug-In . SVG Version: 6.00 Build 0)  -->
<svg version="1.1" id="Capa_1" xmlns="http://www.w3.org/2000/svg" xmlns:xlink="http://www.w3.org/1999/xlink" x="0px" y="0px"
	 viewBox="0 0 512 512" style="enable-background:new 0 0 512 512;" xml:space="preserve">
<path style="fill:#FFA78F;" d="M317.204,360.708v77.71c0,11.667-122.399,11.667-122.399,0v-77.71
	c18.03,10.49,38.95,16.51,61.2,16.51S299.174,371.198,317.204,360.708z"/>
<g>
	<path style="fill:#78D2FA;" d="M475.923,191.389c0,27.57-22.35,49.92-49.92,49.92c-22.31,0-41.21-14.65-47.6-34.86v-12.84
		c0-4.83-0.28-9.6-0.84-14.29c5.4-21.73,25.04-37.84,48.44-37.84C453.573,141.479,475.923,163.829,475.923,191.389z"/>
	<path style="fill:#78D2FA;" d="M455.143,295.418c0,27.57-22.35,49.92-49.91,49.92c-19.44,0-36.29-11.11-44.53-27.33
		c11.23-18.48,17.7-40.12,17.7-63.2v-1.48c7.75-4.95,16.95-7.82,26.83-7.82C432.793,245.509,455.143,267.858,455.143,295.418z"/>
	<path style="fill:#78D2FA;" d="M392.264,46c-27.72,0-50.19,22.48-50.19,50.2c0,4.16,0.51,8.21,1.47,12.07
		c3.11,12.63,11,23.37,21.65,30.19c7.81,5.02,17.1,7.93,27.07,7.93c27.72,0,50.2-22.47,50.2-50.19S419.984,46,392.264,46z"/>
</g>
<path style="fill:#4A545D;" d="M41.798,502v-32.301c0-17.205,14.077-31.281,31.281-31.281h365.853
	c17.205,0,31.281,14.077,31.281,31.281V502H41.798z"/>
<g>
	<path style="fill:#78D2FA;" d="M134.435,179.339c-0.55,4.68-0.83,9.45-0.83,14.27v12.8c-6.38,20.23-25.29,34.9-47.62,34.9
		c-27.56,0-49.91-22.35-49.91-49.92c0-27.56,22.35-49.91,49.91-49.91C109.395,141.479,129.045,157.599,134.435,179.339z"/>
	<path style="fill:#78D2FA;" d="M151.295,317.988c-8.23,16.23-25.08,27.35-44.53,27.35c-27.57,0-49.91-22.35-49.91-49.92
		c0-27.56,22.34-49.91,49.91-49.91c9.88,0,19.09,2.87,26.84,7.83v1.47C133.605,277.878,140.075,299.518,151.295,317.988z"/>
	<path style="fill:#78D2FA;" d="M119.725,46c-27.72,0-50.19,22.48-50.19,50.2s22.47,50.19,50.19,50.19c9.98,0,19.28-2.91,27.1-7.93
		c10.63-6.83,18.52-17.56,21.63-30.17c0.96-3.87,1.47-7.92,1.47-12.09C169.925,68.48,147.455,46,119.725,46z"/>
</g>
<g>
	<path style="fill:#F5B955;" d="M119.725,114.389c-10.04,0-18.19-8.15-18.19-18.19c0-10.05,8.15-18.2,18.19-18.2
		c10.05,0,18.2,8.15,18.2,18.2C137.925,106.239,129.775,114.389,119.725,114.389z"/>
	<path style="fill:#F5B955;" d="M410.584,96.199c0,10.04-8.14,18.19-18.19,18.19s-18.19-8.15-18.19-18.19
		c0-10.05,8.14-18.2,18.19-18.2C402.444,78,410.584,86.149,410.584,96.199z"/>
	<circle style="fill:#F5B955;" cx="86.01" cy="191.979" r="18.19"/>
	<circle style="fill:#F5B955;" cx="426.668" cy="191.979" r="18.19"/>
	<circle style="fill:#F5B955;" cx="107.009" cy="295.978" r="18.19"/>
	<circle style="fill:#F5B955;" cx="406.008" cy="295.978" r="18.19"/>
</g>
<rect x="172.509" y="10" style="fill:#78D2FA;" width="49.4" height="91.809"/>
<rect x="221.909" y="10" style="fill:#F5B955;" width="59.7" height="91.809"/>
<rect x="281.608" y="10" style="fill:#78D2FA;" width="56.4" height="91.809"/>
<path style="fill:#FFBFAB;" d="M378.404,193.609v61.2c0,23.08-6.47,44.72-17.7,63.2c-10.68,17.61-25.68,32.34-43.5,42.69v0.01
	c-18.03,10.49-38.95,16.51-61.2,16.51s-43.17-6.02-61.2-16.51v-0.01c-17.82-10.36-32.83-25.1-43.51-42.71
	c-11.22-18.47-17.69-40.11-17.69-63.18v-61.2c0-4.82,0.28-9.59,0.83-14.27c1.71-14.54,5.99-28.33,12.39-40.88
	c10.63-6.83,18.52-17.56,21.63-30.17c2.18-2.25,4.46-4.41,6.81-6.48h161.399c1.92,1.68,3.99,3.56,5.79,5.35
	c0.37,0.37,0.73,0.74,1.09,1.11c3.11,12.63,11,23.37,21.65,30.19c6.38,12.55,10.67,26.33,12.37,40.86
	C378.124,184.009,378.404,188.779,378.404,193.609z"/>
<path d="M119.725,124.389c15.55,0,28.2-12.646,28.2-28.189c0-15.55-12.65-28.2-28.2-28.2c-15.544,0-28.189,12.65-28.189,28.2
	C91.536,111.743,104.181,124.389,119.725,124.389z M119.725,87.999c4.521,0,8.2,3.679,8.2,8.2c0,4.516-3.679,8.189-8.2,8.189
	c-4.516,0-8.189-3.674-8.189-8.189C111.536,91.678,115.209,87.999,119.725,87.999z"/>
<path d="M392.395,124.389c15.544,0,28.189-12.646,28.189-28.189c0-15.55-12.646-28.2-28.189-28.2s-28.19,12.65-28.19,28.2
	C364.205,111.743,376.851,124.389,392.395,124.389z M392.395,87.999c4.516,0,8.189,3.679,8.189,8.2c0,4.516-3.674,8.189-8.189,8.189
	c-4.517,0-8.19-3.674-8.19-8.189C384.205,91.678,387.878,87.999,392.395,87.999z"/>
<path d="M114.198,191.977c0-15.546-12.647-28.193-28.192-28.193s-28.192,12.647-28.192,28.193c0,15.545,12.647,28.192,28.192,28.192
	S114.198,207.521,114.198,191.977z M77.814,191.977c0-4.518,3.675-8.193,8.192-8.193c4.517,0,8.192,3.676,8.192,8.193
	c0,4.517-3.675,8.192-8.192,8.192C81.489,200.169,77.814,196.494,77.814,191.977z"/>
<path d="M398.478,191.977c0,15.545,12.647,28.192,28.193,28.192c15.545,0,28.192-12.647,28.192-28.192
	c0-15.546-12.647-28.193-28.192-28.193C411.125,163.783,398.478,176.431,398.478,191.977z M426.671,183.783
	c4.518,0,8.192,3.676,8.192,8.193c0,4.517-3.675,8.192-8.192,8.192s-8.193-3.675-8.193-8.192
	C418.478,187.459,422.154,183.783,426.671,183.783z"/>
<path d="M223.005,215.669c0,5.522,4.478,10,10,10s10-4.478,10-10c0-22.056-17.944-40-40-40s-40,17.944-40,40c0,5.522,4.478,10,10,10
	s10-4.478,10-10c0-11.028,8.972-20,20-20S223.005,204.641,223.005,215.669z"/>
<path d="M281.004,225.669c5.522,0,10-4.478,10-10c0-11.028,8.972-20,20-20c11.028,0,20,8.972,20,20c0,5.522,4.478,10,10,10
	s10-4.478,10-10c0-22.056-17.944-40-40-40c-22.056,0-40,17.944-40,40C271.004,221.191,275.482,225.669,281.004,225.669z"/>
<path d="M438.683,428.504H327.205v-62.216c12.838-8.238,24.201-18.661,33.525-30.712c11.188,12.445,27.201,19.761,44.505,19.761
	c33.034,0,59.91-26.88,59.91-59.92c0-18.777-8.69-35.556-22.252-46.549c24.84-7.312,43.031-30.306,43.031-57.481
	c0-28.295-19.727-52.054-46.148-58.294c7.941-10.199,12.688-23,12.688-36.896c0-33.194-27.006-60.2-60.2-60.2
	c-17.488,0-33.253,7.504-44.26,19.456V10c0-5.522-4.478-10-10-10H172.505c-5.522,0-10,4.478-10,10v43.896
	C151.586,42.855,136.443,36,119.725,36c-33.188,0-60.189,27.006-60.189,60.2c0,13.896,4.746,26.696,12.685,36.895
	c-26.418,6.238-46.145,29.999-46.145,58.295c0,27.177,18.191,50.173,43.029,57.483c-13.561,10.993-22.25,27.771-22.25,46.547
	c0,33.04,26.876,59.92,59.91,59.92c17.311,0,33.325-7.321,44.51-19.774c9.326,12.052,20.69,22.478,33.53,30.722v62.219H73.327
	c-22.739,0-41.238,18.5-41.238,41.239V502c0,5.522,4.478,10,10,10h427.833c5.522,0,10-4.478,10-10v-32.257
	C479.921,447.004,461.422,428.504,438.683,428.504z M405.235,335.338c-13.373,0-25.584-6.561-32.968-17.404
	c2.503-4.582,4.73-9.293,6.664-14.114c3.407,11.739,14.251,20.348,27.073,20.348c15.545,0,28.192-12.647,28.192-28.192
	c0-15.546-12.647-28.193-28.192-28.193c-7.431,0-14.195,2.895-19.237,7.61c0.843-5.323,1.377-10.704,1.561-16.12
	c5.264-2.465,11.018-3.764,16.907-3.764c22.007,0,39.91,17.903,39.91,39.91C445.144,317.43,427.242,335.338,405.235,335.338z
	 M397.812,295.976c0-4.518,3.675-8.193,8.192-8.193s8.192,3.676,8.192,8.193s-3.675,8.192-8.192,8.192
	S397.812,300.493,397.812,295.976z M465.923,191.389c0,22.013-17.908,39.921-39.92,39.921c-17.01,0-31.94-10.59-37.6-26.501
	c0,0-0.246-20.254-0.702-24.675c4.957-16.954,20.475-28.655,38.302-28.655C448.015,151.479,465.923,169.383,465.923,191.389z
	 M392.264,56c22.166,0,40.2,18.034,40.2,40.2c0,22.16-18.034,40.189-40.2,40.189c-7.718,0-15.209-2.193-21.663-6.342
	c-0.003-0.002-0.005-0.003-0.008-0.005c-0.002-0.001-0.004-0.003-0.006-0.004c-8.715-5.582-14.871-14.162-17.333-24.16
	c-0.001-0.003-0.002-0.007-0.003-0.01c-0.001-0.004-0.001-0.009-0.002-0.013c-0.779-3.132-1.174-6.38-1.174-9.655
	C352.075,74.034,370.104,56,392.264,56z M328.004,91.81h-36.398V20h36.398V91.81z M231.904,91.81V20h39.703V91.81H231.904z
	 M182.505,20h29.398V91.81h-29.398V20z M119.725,56c22.166,0,40.2,18.034,40.2,40.2c0,3.28-0.396,6.537-1.176,9.683
	c-0.001,0.003-0.001,0.006-0.002,0.009c0,0.001-0.001,0.002-0.001,0.004c-2.461,9.976-8.613,18.552-17.323,24.15
	c-6.466,4.15-13.969,6.344-21.698,6.344c-22.16,0-40.189-18.029-40.189-40.189C79.537,74.034,97.565,56,119.725,56z M46.077,191.389
	c0-22.006,17.903-39.909,39.91-39.909c17.843,0,33.367,11.712,38.314,28.68c-0.452,4.44-0.695,24.614-0.695,24.614
	c-5.653,15.931-20.59,26.537-37.619,26.537C63.98,231.31,46.077,213.401,46.077,191.389z M106.765,335.338
	c-22.007,0-39.91-17.908-39.91-39.92c0-22.007,17.903-39.91,39.91-39.91c5.897,0,11.655,1.301,16.917,3.77
	c0.172,5.065,0.652,10.1,1.401,15.085c-4.898-4.104-11.203-6.58-18.078-6.58c-15.545,0-28.192,12.647-28.192,28.193
	c0,15.545,12.647,28.192,28.192,28.192c12.32,0,22.813-7.948,26.639-18.982c1.798,4.34,3.828,8.59,6.091,12.733
	C132.358,328.771,120.145,335.338,106.765,335.338z M115.198,295.976c0,4.518-3.675,8.192-8.192,8.192
	c-4.517,0-8.192-3.675-8.192-8.192s3.675-8.193,8.192-8.193C111.523,287.783,115.198,291.458,115.198,295.976z M159.842,312.797
	c-10.623-17.487-16.237-37.54-16.237-57.988c0,0,0.256-70.002,0.762-74.303c1.444-12.286,4.89-24.13,10.247-35.245
	c10.988-7.81,18.966-18.938,22.794-31.797c0.563-0.553,1.138-1.105,1.724-1.655h153.711c0.627,0.577,1.212,1.127,1.753,1.648
	c3.832,12.879,11.814,24.01,22.809,31.806c5.357,11.147,8.797,22.984,10.231,35.24c0.511,4.278,0.77,74.306,0.77,74.306
	c0,20.457-5.618,40.516-16.251,58.014c-9.808,16.171-23.63,29.736-39.972,39.229c-0.116,0.067-0.23,0.138-0.343,0.209
	c-16.958,9.787-36.256,14.958-55.835,14.958s-38.876-5.171-55.834-14.958c-0.111-0.07-0.225-0.14-0.34-0.207
	C183.48,342.546,169.653,328.974,159.842,312.797z M459.921,492H52.088v-22.257c0-11.711,9.527-21.239,21.238-21.239h152.389
	c5.522,0,10-4.478,10-10s-4.478-10-10-10h-20.91v-51.66c16.155,6.813,33.579,10.373,51.2,10.373s35.045-3.56,51.2-10.373v51.66
	h-1.49c-5.522,0-10,4.478-10,10s4.478,10,10,10h132.969c11.711,0,21.238,9.528,21.238,21.239L459.921,492L459.921,492z"/>
<path d="M274.944,434.657c-0.25-0.61-0.56-1.19-0.92-1.73c-0.359-0.55-0.779-1.06-1.239-1.52c-0.461-0.461-0.971-0.881-1.521-1.24
	c-0.54-0.36-1.12-0.67-1.729-0.92c-0.601-0.25-1.23-0.44-1.87-0.57c-1.29-0.26-2.61-0.26-3.9,0c-0.64,0.13-1.27,0.32-1.87,0.57
	c-0.609,0.25-1.189,0.56-1.729,0.92c-0.551,0.359-1.061,0.779-1.521,1.24c-0.46,0.46-0.88,0.97-1.25,1.52
	c-0.359,0.54-0.66,1.12-0.91,1.73c-0.25,0.6-0.449,1.229-0.58,1.869c-0.13,0.641-0.189,1.301-0.189,1.95
	c0,0.65,0.06,1.311,0.189,1.96c0.131,0.63,0.33,1.26,0.58,1.87c0.25,0.601,0.561,1.18,0.92,1.72c0.36,0.551,0.78,1.061,1.24,1.521
	c0.46,0.46,0.97,0.88,1.521,1.25c0.54,0.36,1.12,0.67,1.729,0.92c0.601,0.25,1.23,0.44,1.87,0.57c0.64,0.13,1.3,0.189,1.95,0.189
	c0.649,0,1.31-0.06,1.95-0.189c0.64-0.13,1.27-0.32,1.87-0.57c0.609-0.25,1.189-0.56,1.729-0.92c0.55-0.37,1.06-0.79,1.521-1.25
	c0.46-0.46,0.88-0.97,1.239-1.521c0.36-0.54,0.67-1.119,0.92-1.72c0.25-0.61,0.45-1.24,0.57-1.87c0.13-0.649,0.2-1.31,0.2-1.96
	c0-0.649-0.07-1.31-0.2-1.95C275.394,435.887,275.194,435.257,274.944,434.657z"/>
<g>
</g>
<g>
</g>
<g>
</g>
<g>
</g>
<g>
</g>
<g>
</g>
<g>
</g>
<g>
</g>
<g>
</g>
<g>
</g>
<g>
</g>
<g>
</g>
<g>
</g>
<g>
</g>
<g>
</g>
</svg>
