<?xml version="1.0" encoding="utf-8"?>
<!-- Svg Vector Icons : http://www.onlinewebfonts.com/icon -->
<!DOCTYPE svg PUBLIC "-//W3C//DTD SVG 1.1//EN" "http://www.w3.org/Graphics/SVG/1.1/DTD/svg11.dtd">
<svg version="1.1" xmlns="http://www.w3.org/2000/svg" xmlns:xlink="http://www.w3.org/1999/xlink" x="0px" y="0px" viewBox="0 0 1000 1000" enable-background="new 0 0 1000 1000" xml:space="preserve">
<metadata> Svg Vector Icons : http://www.onlinewebfonts.com/icon </metadata>
<g><g transform="translate(0.000000,511.000000) scale(0.100000,-0.100000)"><path d="M9121.5,3946.7c-145.8-23-232.7-66.5-301.8-148.3c-40.9-46-81.8-99.7-87-117.6c-7.7-25.6-56.3-15.3-189.2,46c-97.2,43.5-278.8,104.8-406.6,138.1c-202,53.7-283.8,61.4-677.7,58.8c-393.8-2.6-475.7-10.2-690.5-66.5c-557.5-150.9-943.6-355.5-1273.5-677.7l-196.9-191.8l-1329.8-414.3c-731.4-230.2-1365.6-434.7-1406.5-457.8c-163.7-84.4-268.5-248.1-268.5-409.2c2.6-135.5,143.2-818.3,184.1-900.2c89.5-168.8,230.2-248.1,442.4-245.5c71.6,0,759.5,63.9,1531.8,143.2l1401.4,145.8l235.3-76.7c127.9-43.5,327.3-92.1,442.4-107.4c209.7-30.7,212.3-33.2,222.5-112.5c7.7-43.5,48.6-296.7,89.5-560.1c43.5-266,71.6-493.6,63.9-506.3c-7.7-12.8-33.3-23-61.4-23c-38.4,0-43.5-12.8-25.6-94.6c10.2-53.7,28.1-140.7,35.8-194.3c15.3-84.4,25.6-94.6,84.4-89.5c66.5,7.7,69.1,2.5,138.1-299.2c38.4-168.8,63.9-314.5,56.3-324.8c-5.1-12.8-28.1-20.4-48.6-20.4c-43.5,0-46.1-48.6-7.7-240.4c30.7-140.7,33.3-145.8,99.7-130.4c69.1,15.3,71.6,10.2,148.3-222.5c40.9-130.4,217.4-534.5,388.7-897.6c391.3-815.8,337.6-782.6,846.5-529.4c396.4,199.5,409.2,240.4,186.7,537c-81.8,104.8-191.8,283.8-245.5,396.4c-112.5,230.2-112.5,194.3-35.8,859.2c110,943.7,61.4,1869.4-127.9,2516.4c-66.5,232.7-81.8,202,168.8,342.7c196.9,112.5,475.7,347.8,575.4,485.9c58.8,81.8,87,102.3,127.9,89.5c110-35.8,263.4-38.4,370.8-10.2c145.8,38.4,294.1,184.1,317.1,312c20.4,107.4-266,1659.7-327.4,1779.9c-48.6,97.2-122.7,158.6-237.8,199.5C9231.5,3964.6,9226.4,3964.6,9121.5,3946.7z M7607.6,2928.8c153.4-84.4,281.3-214.8,368.3-375.9c48.6-92.1,58.8-148.3,58.8-352.9c0-219.9-7.7-255.7-74.2-378.5c-153.4-276.2-378.5-416.9-695.6-434.7c-186.7-10.2-225.1-2.6-365.7,58.8c-514,232.7-659.8,882.3-289,1294c74.2,84.4,176.5,161.1,273.6,207.1c140.7,69,173.9,74.2,370.8,66.5C7436.2,3005.6,7495.1,2990.2,7607.6,2928.8z"/><path d="M7062.9,2586.2c-373.4-168.8-337.6-677.7,58.8-797.9c207.2-61.4,455.2,84.4,514,304.3c58.8,217.4-76.7,452.7-291.6,514C7208.7,2642.4,7183.1,2642.4,7062.9,2586.2z"/><path d="M991.8,1386.8c-705.8-194.4-808.1-230.2-854.1-289c-69.1-97.2-40.9-217.4,66.5-268.5c79.3-35.8,115.1-28.1,836.2,168.8c414.3,112.5,800.4,222.5,859.3,242.9c99.7,38.4,163.7,117.6,163.7,207.1c0,66.5-120.2,163.7-196.9,161.1C1828,1609.3,1434.2,1509.5,991.8,1386.8z"/><path d="M1214.3,642.6c-485.9-133-833.7-242.9-864.4-271.1c-76.7-69.1-69.1-199.5,15.3-266c38.4-30.7,86.9-53.7,110-53.7c23,0,414.3,102.3,872.1,227.6c572.8,158.6,838.8,242.9,861.8,273.6c35.8,48.6,43.5,184.1,12.8,230.2c-23,35.8-120.2,86.9-163.7,84.4C2040.3,867.6,1659.3,765.3,1214.3,642.6z"/></g></g>
</svg>