<?xml version="1.0" encoding="UTF-8" standalone="no"?>
<!-- Created with Inkscape (http://www.inkscape.org/) -->

<svg
   xmlns:dc="http://purl.org/dc/elements/1.1/"
   xmlns:cc="http://creativecommons.org/ns#"
   xmlns:rdf="http://www.w3.org/1999/02/22-rdf-syntax-ns#"
   xmlns:svg="http://www.w3.org/2000/svg"
   xmlns="http://www.w3.org/2000/svg"
   xmlns:sodipodi="http://sodipodi.sourceforge.net/DTD/sodipodi-0.dtd"
   xmlns:inkscape="http://www.inkscape.org/namespaces/inkscape"
   version="1.1"
   id="svg92"
   xml:space="preserve"
   width="1122.52"
   height="793.70135"
   viewBox="0 0 1122.52 793.70135"
   sodipodi:docname="Logo-hillary.svg"
   inkscape:version="0.92.3 (2405546, 2018-03-11)"><metadata
     id="metadata98"><rdf:RDF><cc:Work
         rdf:about=""><dc:format>image/svg+xml</dc:format><dc:type
           rdf:resource="http://purl.org/dc/dcmitype/StillImage" /><dc:title></dc:title></cc:Work></rdf:RDF></metadata><defs
     id="defs96"><clipPath
       clipPathUnits="userSpaceOnUse"
       id="clipPath126"><path
         d="M 0,595.276 H 841.89 V 0 H 0 Z"
         id="path124"
         inkscape:connector-curvature="0" /></clipPath></defs><sodipodi:namedview
     pagecolor="#ffffff"
     bordercolor="#666666"
     borderopacity="1"
     objecttolerance="10"
     gridtolerance="10"
     guidetolerance="10"
     inkscape:pageopacity="0"
     inkscape:pageshadow="2"
     inkscape:window-width="1920"
     inkscape:window-height="1017"
     id="namedview94"
     showgrid="false"
     inkscape:zoom="4.7138627"
     inkscape:cx="544.90469"
     inkscape:cy="385.90881"
     inkscape:window-x="-8"
     inkscape:window-y="-8"
     inkscape:window-maximized="1"
     inkscape:current-layer="g100" /><g
     id="g100"
     inkscape:groupmode="layer"
     inkscape:label="Logo"
     transform="matrix(1.3333333,0,0,-1.3333333,0,793.70133)"><g
       id="g102"
       transform="translate(334.2305,259.4205)"><path
         d="m 0,0 v -23.366 h -1.823 v 11.072 h -15.588 v -11.072 h -1.807 V 0 h 1.807 v -10.788 h 15.588 l 0,10.788 z"
         style="fill:#231f20;fill-opacity:1;fill-rule:nonzero;stroke:none"
         id="path104"
         inkscape:connector-curvature="0" /></g><path
       d="m 351.699,236.054 h -1.806 v 23.366 h 1.806 z"
       style="fill:#231f20;fill-opacity:1;fill-rule:nonzero;stroke:none"
       id="path106"
       inkscape:connector-curvature="0" /><g
       id="g108"
       transform="translate(369.1338,259.4205)"><path
         d="m 0,0 v -21.86 h 11.557 v -1.506 H -1.807 l 0,23.366 z"
         style="fill:#231f20;fill-opacity:1;fill-rule:nonzero;stroke:none"
         id="path110"
         inkscape:connector-curvature="0" /></g><g
       id="g112"
       transform="translate(395.4834,259.4205)"><path
         d="m 0,0 v -21.86 h 11.557 v -1.506 H -1.807 l 0,23.366 z"
         style="fill:#231f20;fill-opacity:1;fill-rule:nonzero;stroke:none"
         id="path114"
         inkscape:connector-curvature="0" /></g><g
       id="g116"
       transform="translate(433.7666,245.6383)"><path
         d="M 0,0 -5.035,11.006 -10.052,0 Z M -4.522,13.949 6.28,-9.584 H 4.385 l -3.697,8.079 h -11.426 l -3.683,-8.079 h -1.895 l 10.801,23.533 z"
         style="fill:#231f20;fill-opacity:1;fill-rule:nonzero;stroke:none"
         id="path118"
         inkscape:connector-curvature="0" /></g><g
       id="g128"
       transform="translate(454.9561,257.9147)"><path
         d="m 0,0 v -9.148 h 3.881 c 1.973,0 3.481,0.398 4.523,1.195 1.043,0.798 1.565,1.927 1.565,3.388 0,1.438 -0.531,2.558 -1.589,3.361 C 7.32,-0.401 5.798,0 3.813,0 Z m -1.807,1.506 h 5.989 c 2.508,0 4.426,-0.544 5.754,-1.631 1.326,-1.087 1.99,-2.557 1.99,-4.407 0,-2.698 -1.484,-4.594 -4.449,-5.687 0.769,-0.368 1.806,-1.555 3.111,-3.562 l 5.285,-8.079 h -2.139 l -4.07,6.404 c -1.359,2.142 -2.419,3.477 -3.177,4.007 -0.758,0.53 -1.867,0.795 -3.327,0.795 H 0 V -21.86 h -1.807 z"
         style="fill:#231f20;fill-opacity:1;fill-rule:nonzero;stroke:none"
         id="path130"
         inkscape:connector-curvature="0" /></g><g
       id="g132"
       transform="translate(498.9521,259.4205)"><path
         d="m 0,0 -9.083,-10.821 v -12.545 h -1.806 v 12.545 L -19.971,0 h 2.184 L -9.975,-9.257 -2.206,0 Z"
         style="fill:#231f20;fill-opacity:1;fill-rule:nonzero;stroke:none"
         id="path134"
         inkscape:connector-curvature="0" /></g></g></svg>