<svg height="512pt" viewBox="-64 0 512 512.006" width="512pt" xmlns="http://www.w3.org/2000/svg"><path style="fill:white;" d="m96.121094 288c-17.648438 0-32-14.351562-32-32 0-15.527344 21.695312-40.503906 26.050781-45.34375 3.03125-3.375 8.871094-3.375 11.902344 0 4.351562 4.839844 26.046875 29.816406 26.046875 45.34375 0 17.648438-14.351563 32-32 32zm0-59.617188c-8.488282 10.609376-16 22.511719-16 27.617188 0 8.824219 7.175781 16 16 16 8.824218 0 16-7.175781 16-16 0-5.105469-7.519532-17.007812-16-27.617188zm0 0"/><path style="fill:white;" d="m152.003906 56h-112c-4.425781 0-8-3.574219-8-8v-40c0-4.425781 3.574219-8 8-8h112c4.421875 0 8 3.574219 8 8v40c0 4.425781-3.578125 8-8 8zm-104-16h96v-24h-96zm0 0"/><path style="fill:white;" d="m56.003906 72c-4.425781 0-8-3.574219-8-8v-16c0-4.425781 3.574219-8 8-8 4.421875 0 8 3.574219 8 8v16c0 4.425781-3.578125 8-8 8zm0 0"/><path style="fill:white;" d="m136.003906 72c-4.425781 0-8-3.574219-8-8v-16c0-4.425781 3.574219-8 8-8 4.421875 0 8 3.574219 8 8v16c0 4.425781-3.578125 8-8 8zm0 0"/><path style="fill:white;" d="m32.011719 88c-2.585938 0-5.128907-1.246094-6.664063-3.558594-2.457031-3.679687-1.464844-8.640625 2.214844-11.097656l24-16c3.6875-2.457031 8.648438-1.464844 11.097656 2.214844 2.453125 3.679687 1.460938 8.640625-2.21875 11.097656l-24 16c-1.367187.902344-2.910156 1.34375-4.429687 1.34375zm0 0"/><path style="fill:white;" d="m159.996094 88c-1.523438 0-3.066406-.441406-4.433594-1.34375l-24-16c-3.679688-2.457031-4.671875-7.417969-2.214844-11.097656 2.445313-3.679688 7.40625-4.671875 11.09375-2.214844l24 16c3.679688 2.457031 4.671875 7.417969 2.21875 11.097656-1.539062 2.3125-4.082031 3.558594-6.664062 3.558594zm0 0"/><path style="fill:white;" d="m16.011719 480c-.113281 0-.226563 0-.335938-.007812-4.417969-.175782-7.839843-3.902344-7.664062-8.320313l16-392c.167969-4.425781 3.816406-7.976563 8.320312-7.664063 4.414063.175782 7.839844 3.902344 7.664063 8.320313l-16 392c-.167969 4.304687-3.722656 7.671875-7.984375 7.671875zm0 0"/><path style="fill:white;" d="m175.996094 480c-4.265625 0-7.816406-3.367188-7.984375-7.671875l-16-392c-.175781-4.417969 3.246093-8.144531 7.664062-8.320313 4.390625-.320312 8.140625 3.238282 8.320313 7.664063l16 392c.175781 4.417969-3.25 8.144531-7.664063 8.320313-.113281.007812-.226562.007812-.335937.007812zm0 0"/><path style="fill:white;" d="m184.164062 512c-.042968.007812-.097656.007812-.160156 0h-176c-2.464844 0-4.792968-1.136719-6.304687-3.078125-1.511719-1.9375-2.058594-4.472656-1.457031-6.859375l8-32c.894531-3.558594 4.089843-6.0625 7.761718-6.0625h160c3.671875 0 6.863282 2.503906 7.757813 6.0625l7.632812 30.503906c.496094 1.042969.769531 2.203125.769531 3.433594 0 4.425781-3.585937 8-8 8zm-165.914062-16h155.503906l-4-16h-147.503906zm0 0"/><path style="fill:white;" d="m161.304688 120h-130.605469c-4.425781 0-8-3.574219-8-8s3.574219-8 8-8h130.605469c4.425781 0 8 3.574219 8 8s-3.574219 8-8 8zm0 0"/><path style="fill:white;" d="m136.003906 328h-80c-4.425781 0-8-3.574219-8-8s3.574219-8 8-8h80c4.421875 0 8 3.574219 8 8s-3.578125 8-8 8zm0 0"/><path style="fill:white;" d="m120.121094 360h-48.230469c-4.425781 0-8-3.574219-8-8s3.574219-8 8-8h48.230469c4.425781 0 8 3.574219 8 8s-3.582032 8-8 8zm0 0"/><path style="fill:white;" d="m287.882812 304c-2.273437 0-4.441406-.96875-5.953124-2.65625-4.351563-4.839844-26.046876-29.816406-26.046876-45.34375 0-17.648438 14.351563-32 32-32 17.648438 0 32 14.351562 32 32 0 15.527344-21.695312 40.503906-26.046874 45.34375-1.511719 1.6875-3.671876 2.65625-5.953126 2.65625zm0-64c-8.824218 0-16 7.175781-16 16 0 5.105469 7.511719 17.007812 16 27.617188 8.488282-10.609376 16-22.511719 16-27.617188 0-8.824219-7.175781-16-16-16zm0 0"/><path style="fill:white;" d="m344.003906 512h-112c-4.425781 0-8-3.574219-8-8v-40c0-4.425781 3.574219-8 8-8h112c4.421875 0 8 3.574219 8 8v40c0 4.425781-3.578125 8-8 8zm-104-16h96v-24h-96zm0 0"/><path style="fill:white;" d="m328.003906 472c-4.425781 0-8-3.574219-8-8v-16c0-4.425781 3.574219-8 8-8 4.421875 0 8 3.574219 8 8v16c0 4.425781-3.578125 8-8 8zm0 0"/><path style="fill:white;" d="m248.003906 472c-4.425781 0-8-3.574219-8-8v-16c0-4.425781 3.574219-8 8-8 4.421875 0 8 3.574219 8 8v16c0 4.425781-3.578125 8-8 8zm0 0"/><path style="fill:white;" d="m328.011719 456c-2.585938 0-5.128907-1.246094-6.664063-3.558594-2.457031-3.679687-1.464844-8.640625 2.214844-11.097656l24-16c3.6875-2.457031 8.648438-1.464844 11.097656 2.214844 2.453125 3.679687 1.460938 8.640625-2.21875 11.097656l-24 16c-1.367187.902344-2.910156 1.34375-4.429687 1.34375zm0 0"/><path style="fill:white;" d="m247.996094 456c-1.523438 0-3.066406-.441406-4.433594-1.34375l-24-16c-3.679688-2.457031-4.671875-7.417969-2.214844-11.097656 2.445313-3.679688 7.398438-4.671875 11.09375-2.214844l24 16c3.679688 2.457031 4.671875 7.417969 2.21875 11.097656-1.539062 2.3125-4.082031 3.558594-6.664062 3.558594zm0 0"/><path style="fill:white;" d="m352.011719 440c-.113281 0-.226563 0-.335938-.007812-4.417969-.175782-7.839843-3.902344-7.664062-8.320313l16-392c.167969-4.425781 3.75-7.976563 8.320312-7.664063 4.414063.175782 7.839844 3.902344 7.664063 8.320313l-16 392c-.167969 4.304687-3.722656 7.671875-7.984375 7.671875zm0 0"/><path style="fill:white;" d="m223.996094 440c-4.265625 0-7.816406-3.367188-7.984375-7.671875l-16-392c-.175781-4.417969 3.246093-8.144531 7.664062-8.320313 4.199219-.320312 8.140625 3.238282 8.320313 7.664063l16 392c.175781 4.417969-3.25 8.144531-7.664063 8.320313-.113281.007812-.226562.007812-.335937.007812zm0 0"/><path style="fill:white;" d="m368.003906 48h-160c-3.671875 0-6.867187-2.503906-7.761718-6.0625l-8-32c-.601563-2.394531-.0625-4.921875 1.457031-6.859375 1.511719-1.941406 3.839843-3.078125 6.304687-3.078125h176c2.460938 0 4.789063 1.136719 6.300782 3.078125 1.511718 1.9375 2.058593 4.472656 1.457031 6.859375l-8 32c-.894531 3.566406-4.085938 6.0625-7.757813 6.0625zm-153.753906-16h147.503906l4-16h-155.503906zm0 0"/><path style="fill:white;" d="m353.304688 408h-130.605469c-4.425781 0-8-3.574219-8-8s3.574219-8 8-8h130.605469c4.425781 0 8 3.574219 8 8s-3.574219 8-8 8zm0 0"/><path style="fill:white;" d="m328.003906 200h-80c-4.425781 0-8-3.574219-8-8s3.574219-8 8-8h80c4.421875 0 8 3.574219 8 8s-3.578125 8-8 8zm0 0"/><path style="fill:white;" d="m312.121094 168h-48.230469c-4.425781 0-8-3.574219-8-8s3.574219-8 8-8h48.230469c4.425781 0 8 3.574219 8 8s-3.582032 8-8 8zm0 0"/></svg>